<?xml version="1.0" encoding="UTF-8"?>
<!DOCTYPE svg PUBLIC "-//W3C//DTD SVG 1.1//EN" "http://www.w3.org/Graphics/SVG/1.1/DTD/svg11.dtd">
<!-- Creator: CorelDRAW 2020 (64-Bit) -->
<svg xmlns="http://www.w3.org/2000/svg" xml:space="preserve" width="83.1509mm" height="86.3766mm" version="1.1" style="shape-rendering:geometricPrecision; text-rendering:geometricPrecision; image-rendering:optimizeQuality; fill-rule:evenodd; clip-rule:evenodd"
viewBox="0 0 9844.11 10226"
 xmlns:xlink="http://www.w3.org/1999/xlink"
 xmlns:xodm="http://www.corel.com/coreldraw/odm/2003">
 <defs>
  <style type="text/css">
   <![CDATA[
    .str1 {stroke:#FEFEFE;stroke-width:118.39;stroke-miterlimit:22.9256}
    .str0 {stroke:#373435;stroke-width:118.39;stroke-miterlimit:22.9256}
    .fil1 {fill:#4B4B4D}
    .fil3 {fill:#373435}
    .fil0 {fill:#2671B5}
    .fil2 {fill:#FDFDFD}
   ]]>
  </style>
    <mask id="id0">
  <linearGradient id="id1" gradientUnits="userSpaceOnUse" x1="905.66" y1="7864.92" x2="13510.3" y2="8391.17">
   <stop offset="0" style="stop-opacity:1; stop-color:white"/>
   <stop offset="1" style="stop-opacity:0; stop-color:white"/>
  </linearGradient>
     <rect style="fill:url(#id1)" x="351.07" y="269.35" width="9150.24" height="9525.42"/>
    </mask>
 </defs>
 <g id="Capa_x0020_1">
  <metadata id="CorelCorpID_0Corel-Layer"/>
  <g id="_1657581006464">
   <path class="fil0 str0" d="M8445.81 10137.3l1330.84 -10057.99c-2245.3,-21.4 -4527.58,-30.67 -6769.67,-2.57 -346.01,4.33 -965.73,387.94 -1196.7,561.23 -736.66,552.77 -1178.51,1302.89 -1289.96,2343.17l-366.87 3393.73c-73.98,649.36 -159.06,1040.92 -19.9,1678.82 549.03,2516.99 3012.72,2084.94 4907.69,2084.94 1130.61,0 2275.78,20.19 3404.57,-1.33z"/>
   <path class="fil1" style="mask:url(#id0)" d="M2857.45 9794.45l5395.25 -0.01c30.18,-393.82 244.24,-1893.16 311.95,-2371.18 112.94,-797.25 216.83,-1596.67 314.24,-2390.1 96.56,-786.35 207.93,-1584.22 312.69,-2365.96 50.62,-377.71 104.38,-809.28 158.56,-1193.06 46.68,-330.78 146.13,-883.85 150.87,-1204.5 -2060.4,26.48 -4204.85,7.78 -6278.77,0.44 -369.8,-1.3 -658,139.77 -965.46,337.27 -1033.96,664.16 -1336.59,1344.36 -1477.38,2588.92l-409.77 3819.68c-88.47,790.01 148.97,1473.08 616.44,2036.25 357.12,430.24 1187.73,744.96 1871.38,742.26z"/>
   <g>
    <path class="fil2 str0" d="M5223.22 6866.07c19.91,-24.4 1.2,18.04 31.08,-46.16 67.22,-144.46 147.71,-949.44 239.29,-1086.26l1459.93 -1608.82c124.4,-140.05 236.3,-257.35 364.48,-402.86l368.26 -423.23 -3029.05 107.25 -528.13 963.06 2395.92 -8c-134.94,168.25 -1164.79,1337.13 -1271.3,1384.21 -467.18,-0.44 -934.41,0.15 -1401.59,0.04 -498.53,-0.13 -929.09,33.56 -852.82,-386.7l475.47 -2608.58c129.73,-711.75 73.2,-1011.99 1224.5,-1012.66l3750.8 -2.19 -1203.82 -1093.4 -2989.55 -15.62c-900.4,47.32 -1561.33,481.63 -1996.81,959.05 -126.64,138.83 -287.6,376.65 -320.93,556.24l-463.09 2791.01c-80.81,521.22 -243.83,860.28 130.85,1306.35 174.93,208.25 832.57,617.21 1360.24,628.28 733.75,15.38 1517.93,1.48 2256.27,-0.98z"/>
    <path class="fil3 str1" d="M4509.35 3195l-527.88 1099.6 2732.48 0.43c-61.94,93.96 -168.8,201.77 -251.1,294.14l-3203.57 3633.05c-215.11,245.34 -196.58,436.08 -268.69,792.41 -21.42,105.78 -46.33,321.44 -89.64,416.82l4225.64 6.54 899.75 -1127.9 -3280.35 46.69 2108.42 -2425.02c365.04,-407.9 690.5,-808.64 1057.85,-1210.37 435.74,-476.54 369.79,-493.88 494.34,-1105.29 25.41,-124.76 71.27,-293.47 75.52,-408.76 -222.4,-34.96 -3876.74,-37.03 -3972.76,-12.34z"/>
   </g>
  </g>
 </g>
</svg>
